<svg xmlns="http://www.w3.org/2000/svg" xmlns:xlink="http://www.w3.org/1999/xlink" width="150" zoomAndPan="magnify" viewBox="0 0 112.5 112.499997" height="150" preserveAspectRatio="xMidYMid meet" version="1.0"><defs><clipPath id="869d1a22a0"><path d="M 29.308594 68 L 83.308594 68 L 83.308594 94 L 29.308594 94 Z M 29.308594 68 " clip-rule="nonzero"/></clipPath><clipPath id="cf1e02550a"><path d="M 29.308594 64 L 83.308594 64 L 83.308594 74 L 29.308594 74 Z M 29.308594 64 " clip-rule="nonzero"/></clipPath><clipPath id="27de21b609"><path d="M 29.308594 89 L 83.308594 89 L 83.308594 98.476562 L 29.308594 98.476562 Z M 29.308594 89 " clip-rule="nonzero"/></clipPath><clipPath id="be8e0c1916"><path d="M 29.308594 68 L 48.808594 68 L 48.808594 94 L 29.308594 94 Z M 29.308594 68 " clip-rule="nonzero"/></clipPath><clipPath id="35d27841ff"><path d="M 29.308594 64 L 48.808594 64 L 48.808594 74 L 29.308594 74 Z M 29.308594 64 " clip-rule="nonzero"/></clipPath><clipPath id="8ea2a8c30f"><path d="M 29.308594 89 L 48.808594 89 L 48.808594 98.476562 L 29.308594 98.476562 Z M 29.308594 89 " clip-rule="nonzero"/></clipPath><clipPath id="510a735517"><path d="M 19.605469 35 L 93.855469 35 L 93.855469 70 L 19.605469 70 Z M 19.605469 35 " clip-rule="nonzero"/></clipPath><clipPath id="9c0958eba8"><path d="M 19.605469 29.03125 L 93.855469 29.03125 L 93.855469 42 L 19.605469 42 Z M 19.605469 29.03125 " clip-rule="nonzero"/></clipPath><clipPath id="6bb5c602f9"><path d="M 19.605469 63 L 93.855469 63 L 93.855469 76.28125 L 19.605469 76.28125 Z M 19.605469 63 " clip-rule="nonzero"/></clipPath><clipPath id="902d7b9121"><path d="M 48.214844 68 L 65.464844 68 L 65.464844 94 L 48.214844 94 Z M 48.214844 68 " clip-rule="nonzero"/></clipPath><clipPath id="9efbe5ab59"><path d="M 48.214844 64 L 65.464844 64 L 65.464844 74 L 48.214844 74 Z M 48.214844 64 " clip-rule="nonzero"/></clipPath><clipPath id="300e163ca5"><path d="M 48.214844 89 L 65.464844 89 L 65.464844 98.476562 L 48.214844 98.476562 Z M 48.214844 89 " clip-rule="nonzero"/></clipPath><clipPath id="24acaaa1a3"><path d="M 19.132812 35 L 40.132812 35 L 40.132812 71 L 19.132812 71 Z M 19.132812 35 " clip-rule="nonzero"/></clipPath><clipPath id="16166d3e5c"><path d="M 19.132812 32.714844 L 40.132812 32.714844 L 40.132812 43 L 19.132812 43 Z M 19.132812 32.714844 " clip-rule="nonzero"/></clipPath><clipPath id="fbd7d7bd4a"><path d="M 19.132812 63 L 40.132812 63 L 40.132812 76.699219 L 19.132812 76.699219 Z M 19.132812 63 " clip-rule="nonzero"/></clipPath><clipPath id="23ebb559bc"><path d="M 39.378906 35 L 70.878906 35 L 70.878906 70 L 39.378906 70 Z M 39.378906 35 " clip-rule="nonzero"/></clipPath><clipPath id="82160a96ea"><path d="M 39.378906 31.597656 L 70.878906 31.597656 L 70.878906 42 L 39.378906 42 Z M 39.378906 31.597656 " clip-rule="nonzero"/></clipPath><clipPath id="9125b22f1d"><path d="M 39.378906 63 L 70.878906 63 L 70.878906 76.460938 L 39.378906 76.460938 Z M 39.378906 63 " clip-rule="nonzero"/></clipPath><clipPath id="72a010d1cf"><path d="M 19.195312 24.015625 L 93.304688 24.015625 L 93.304688 50.050781 L 19.195312 50.050781 Z M 19.195312 24.015625 " clip-rule="nonzero"/></clipPath><clipPath id="07657ce372"><path d="M 56.25 24.015625 C 35.785156 24.015625 19.195312 29.84375 19.195312 37.03125 C 19.195312 44.222656 35.785156 50.050781 56.25 50.050781 C 76.714844 50.050781 93.304688 44.222656 93.304688 37.03125 C 93.304688 29.84375 76.714844 24.015625 56.25 24.015625 Z M 56.25 24.015625 " clip-rule="nonzero"/></clipPath><clipPath id="6f58433799"><path d="M 19.203125 24.015625 L 93.445312 24.015625 L 93.445312 50.265625 L 19.203125 50.265625 Z M 19.203125 24.015625 " clip-rule="nonzero"/></clipPath><clipPath id="026a5c0371"><path d="M 56.320312 24.015625 C 35.820312 24.015625 19.203125 29.890625 19.203125 37.140625 C 19.203125 44.386719 35.820312 50.265625 56.320312 50.265625 C 76.820312 50.265625 93.441406 44.386719 93.441406 37.140625 C 93.441406 29.890625 76.820312 24.015625 56.320312 24.015625 Z M 56.320312 24.015625 " clip-rule="nonzero"/></clipPath><clipPath id="4f6f420cc0"><path d="M 43 33 L 71 33 L 71 49 L 43 49 Z M 43 33 " clip-rule="nonzero"/></clipPath><clipPath id="07b087d6fa"><path d="M 43.101562 33.957031 L 70.09375 33.453125 L 70.363281 47.699219 L 43.367188 48.203125 Z M 43.101562 33.957031 " clip-rule="nonzero"/></clipPath><clipPath id="602ff92169"><path d="M 43.101562 33.957031 L 70.09375 33.453125 L 70.363281 47.699219 L 43.367188 48.203125 Z M 43.101562 33.957031 " clip-rule="nonzero"/></clipPath><clipPath id="3a1c49ecf3"><path d="M 19.203125 24.015625 L 93.445312 24.015625 L 93.445312 50.265625 L 19.203125 50.265625 Z M 19.203125 24.015625 " clip-rule="nonzero"/></clipPath><clipPath id="707396ef0f"><path d="M 56.320312 24.015625 C 35.820312 24.015625 19.203125 29.890625 19.203125 37.140625 C 19.203125 44.386719 35.820312 50.265625 56.320312 50.265625 C 76.820312 50.265625 93.441406 44.386719 93.441406 37.140625 C 93.441406 29.890625 76.820312 24.015625 56.320312 24.015625 Z M 56.320312 24.015625 " clip-rule="nonzero"/></clipPath></defs><g clip-path="url(#869d1a22a0)"><path fill="#4f4f4f" d="M 29.308594 68.683594 L 83.292969 68.683594 L 83.292969 93.75 L 29.308594 93.75 Z M 29.308594 68.683594 " fill-opacity="1" fill-rule="nonzero"/></g><g clip-path="url(#cf1e02550a)"><path fill="#49a7b7" d="M 83.292969 68.683594 C 83.292969 71.238281 71.207031 73.3125 56.300781 73.3125 C 41.390625 73.3125 29.308594 71.238281 29.308594 68.683594 C 29.308594 66.128906 41.390625 64.058594 56.300781 64.058594 C 71.207031 64.058594 83.292969 66.128906 83.292969 68.683594 Z M 83.292969 68.683594 " fill-opacity="1" fill-rule="nonzero"/></g><g clip-path="url(#27de21b609)"><path fill="#4f4f4f" d="M 83.292969 93.75 C 83.292969 96.304688 71.207031 98.375 56.300781 98.375 C 41.390625 98.375 29.308594 96.304688 29.308594 93.75 C 29.308594 91.195312 41.390625 89.125 56.300781 89.125 C 71.207031 89.125 83.292969 91.195312 83.292969 93.75 Z M 83.292969 93.75 " fill-opacity="1" fill-rule="nonzero"/></g><g clip-path="url(#be8e0c1916)"><path fill="#0f0f0f" d="M 29.308594 68.683594 L 83.292969 68.683594 L 83.292969 93.75 L 29.308594 93.75 Z M 29.308594 68.683594 " fill-opacity="1" fill-rule="nonzero"/></g><g clip-path="url(#35d27841ff)"><path fill="#49a7b7" d="M 83.292969 68.683594 C 83.292969 71.238281 71.207031 73.3125 56.300781 73.3125 C 41.390625 73.3125 29.308594 71.238281 29.308594 68.683594 C 29.308594 66.128906 41.390625 64.058594 56.300781 64.058594 C 71.207031 64.058594 83.292969 66.128906 83.292969 68.683594 Z M 83.292969 68.683594 " fill-opacity="1" fill-rule="nonzero"/></g><g clip-path="url(#8ea2a8c30f)"><path fill="#0f0f0f" d="M 83.292969 93.75 C 83.292969 96.304688 71.207031 98.375 56.300781 98.375 C 41.390625 98.375 29.308594 96.304688 29.308594 93.75 C 29.308594 91.195312 41.390625 89.125 56.300781 89.125 C 71.207031 89.125 83.292969 91.195312 83.292969 93.75 Z M 83.292969 93.75 " fill-opacity="1" fill-rule="nonzero"/></g><g clip-path="url(#510a735517)"><path fill="#848484" d="M 19.605469 35.484375 L 93.839844 35.484375 L 93.839844 69.808594 L 19.605469 69.808594 Z M 19.605469 35.484375 " fill-opacity="1" fill-rule="nonzero"/></g><g clip-path="url(#9c0958eba8)"><path fill="#848484" d="M 93.839844 35.484375 C 93.839844 38.984375 77.222656 41.820312 56.722656 41.820312 C 36.222656 41.820312 19.605469 38.984375 19.605469 35.484375 C 19.605469 31.984375 36.222656 29.148438 56.722656 29.148438 C 77.222656 29.148438 93.839844 31.984375 93.839844 35.484375 Z M 93.839844 35.484375 " fill-opacity="1" fill-rule="nonzero"/></g><g clip-path="url(#6bb5c602f9)"><path fill="#848484" d="M 93.839844 69.808594 C 93.839844 73.308594 77.222656 76.144531 56.722656 76.144531 C 36.222656 76.144531 19.605469 73.308594 19.605469 69.808594 C 19.605469 66.3125 36.222656 63.476562 56.722656 63.476562 C 77.222656 63.476562 93.839844 66.3125 93.839844 69.808594 Z M 93.839844 69.808594 " fill-opacity="1" fill-rule="nonzero"/></g><g clip-path="url(#902d7b9121)"><path fill="#282828" d="M 29.308594 68.683594 L 83.292969 68.683594 L 83.292969 93.75 L 29.308594 93.75 Z M 29.308594 68.683594 " fill-opacity="1" fill-rule="nonzero"/></g><g clip-path="url(#9efbe5ab59)"><path fill="#49a7b7" d="M 83.292969 68.683594 C 83.292969 71.238281 71.207031 73.3125 56.300781 73.3125 C 41.390625 73.3125 29.308594 71.238281 29.308594 68.683594 C 29.308594 66.128906 41.390625 64.058594 56.300781 64.058594 C 71.207031 64.058594 83.292969 66.128906 83.292969 68.683594 Z M 83.292969 68.683594 " fill-opacity="1" fill-rule="nonzero"/></g><g clip-path="url(#300e163ca5)"><path fill="#282828" d="M 83.292969 93.75 C 83.292969 96.304688 71.207031 98.375 56.300781 98.375 C 41.390625 98.375 29.308594 96.304688 29.308594 93.75 C 29.308594 91.195312 41.390625 89.125 56.300781 89.125 C 71.207031 89.125 83.292969 91.195312 83.292969 93.75 Z M 83.292969 93.75 " fill-opacity="1" fill-rule="nonzero"/></g><g clip-path="url(#24acaaa1a3)"><path fill="#282828" d="M 19.132812 35.902344 L 93.363281 35.902344 L 93.363281 70.226562 L 19.132812 70.226562 Z M 19.132812 35.902344 " fill-opacity="1" fill-rule="nonzero"/></g><g clip-path="url(#16166d3e5c)"><path fill="#848484" d="M 93.363281 35.902344 C 93.363281 39.398438 76.746094 42.234375 56.246094 42.234375 C 35.75 42.234375 19.132812 39.398438 19.132812 35.902344 C 19.132812 32.402344 35.75 29.566406 56.246094 29.566406 C 76.746094 29.566406 93.363281 32.402344 93.363281 35.902344 Z M 93.363281 35.902344 " fill-opacity="1" fill-rule="nonzero"/></g><g clip-path="url(#fbd7d7bd4a)"><path fill="#282828" d="M 93.363281 70.226562 C 93.363281 73.726562 76.746094 76.5625 56.246094 76.5625 C 35.75 76.5625 19.132812 73.726562 19.132812 70.226562 C 19.132812 66.726562 35.75 63.890625 56.246094 63.890625 C 76.746094 63.890625 93.363281 66.726562 93.363281 70.226562 Z M 93.363281 70.226562 " fill-opacity="1" fill-rule="nonzero"/></g><path stroke-linecap="butt" transform="matrix(0.00249183, 0.749395, -0.749996, 0.00249383, 82.287306, 45.262638)" fill="none" stroke-linejoin="miter" d="M 0.000886926 2.497675 L 39.032341 2.502355 " stroke="#0f0f0f" stroke-width="5" stroke-opacity="1" stroke-miterlimit="4"/><path stroke-linecap="butt" transform="matrix(0.0103727, 0.758903, -0.74993, 0.01025, 82.374334, 46.073259)" fill="none" stroke-linejoin="miter" d="M -0.00000249517 1.999299 L 36.576198 1.999949 " stroke="#282828" stroke-width="4" stroke-opacity="1" stroke-miterlimit="4"/><path stroke-linecap="butt" transform="matrix(0.00247809, 0.756062, -0.749996, 0.00245821, 76.251014, 47.165901)" fill="none" stroke-linejoin="miter" d="M 0.00139418 2.001368 L 36.709896 1.997657 " stroke="#0f0f0f" stroke-width="4" stroke-opacity="1" stroke-miterlimit="4"/><path stroke-linecap="butt" transform="matrix(-0.000261554, 0.743545, -0.75, -0.000263824, 76.482786, 46.92643)" fill="none" stroke-linejoin="miter" d="M -0.00034139 1.497882 L 36.327926 1.500838 " stroke="#282828" stroke-width="3" stroke-opacity="1" stroke-miterlimit="4"/><path stroke-linecap="butt" transform="matrix(0.00248343, 0.757691, -0.749996, 0.00245821, 87.909358, 42.993477)" fill="none" stroke-linejoin="miter" d="M 0.000501963 2.498951 L 39.604779 2.499881 " stroke="#0f0f0f" stroke-width="5" stroke-opacity="1" stroke-miterlimit="4"/><path stroke-linecap="butt" transform="matrix(-0.000262562, 0.746411, -0.75, -0.000263824, 87.144988, 43.222869)" fill="none" stroke-linejoin="miter" d="M 0.000421841 2.000609 L 39.193163 2.002513 " stroke="#282828" stroke-width="4" stroke-opacity="1" stroke-miterlimit="4"/><g clip-path="url(#23ebb559bc)"><path fill="#3a3a3a" d="M 17.46875 35.660156 L 91.703125 35.660156 L 91.703125 69.988281 L 17.46875 69.988281 Z M 17.46875 35.660156 " fill-opacity="1" fill-rule="nonzero"/></g><g clip-path="url(#82160a96ea)"><path fill="#848484" d="M 91.703125 35.660156 C 91.703125 39.160156 75.085938 41.996094 54.585938 41.996094 C 34.085938 41.996094 17.46875 39.160156 17.46875 35.660156 C 17.46875 32.164062 34.085938 29.324219 54.585938 29.324219 C 75.085938 29.324219 91.703125 32.164062 91.703125 35.660156 Z M 91.703125 35.660156 " fill-opacity="1" fill-rule="nonzero"/></g><g clip-path="url(#9125b22f1d)"><path fill="#3a3a3a" d="M 91.703125 69.988281 C 91.703125 73.484375 75.085938 76.320312 54.585938 76.320312 C 34.085938 76.320312 17.46875 73.484375 17.46875 69.988281 C 17.46875 66.488281 34.085938 63.652344 54.585938 63.652344 C 75.085938 63.652344 91.703125 66.488281 91.703125 69.988281 Z M 91.703125 69.988281 " fill-opacity="1" fill-rule="nonzero"/></g><path stroke-linecap="butt" transform="matrix(-0.0146243, 0.757538, -0.74986, -0.0144761, 63.51559, 48.67058)" fill="none" stroke-linejoin="miter" d="M -0.00131708 2.000352 L 36.635654 1.999508 " stroke="#0f0f0f" stroke-width="4" stroke-opacity="1" stroke-miterlimit="4"/><path stroke-linecap="butt" transform="matrix(-0.0170789, 0.744632, -0.749803, -0.0171975, 62.77553, 48.866373)" fill="none" stroke-linejoin="miter" d="M -0.00103056 1.497999 L 36.253319 1.500546 " stroke="#282828" stroke-width="3" stroke-opacity="1" stroke-miterlimit="4"/><path stroke-linecap="butt" transform="matrix(-0.0146243, 0.757538, -0.74986, -0.0144761, 50.272137, 48.593477)" fill="none" stroke-linejoin="miter" d="M 0.00245653 1.99859 L 36.634273 1.997846 " stroke="#0f0f0f" stroke-width="4" stroke-opacity="1" stroke-miterlimit="4"/><path stroke-linecap="butt" transform="matrix(-0.0170789, 0.744632, -0.749803, -0.0171975, 50.513113, 48.355712)" fill="none" stroke-linejoin="miter" d="M -0.00235188 1.502307 L 36.257121 1.499528 " stroke="#282828" stroke-width="3" stroke-opacity="1" stroke-miterlimit="4"/><path stroke-linecap="butt" transform="matrix(-0.0146243, 0.757538, -0.74986, -0.0144761, 56.58925, 48.857554)" fill="none" stroke-linejoin="miter" d="M -0.000636961 1.999593 L 36.636334 1.998749 " stroke="#0f0f0f" stroke-width="4" stroke-opacity="1" stroke-miterlimit="4"/><path stroke-linecap="butt" transform="matrix(-0.0170789, 0.744632, -0.749803, -0.0171975, 56.630216, 49.622241)" fill="none" stroke-linejoin="miter" d="M 0.00167486 1.502103 L 36.255904 1.499443 " stroke="#282828" stroke-width="3" stroke-opacity="1" stroke-miterlimit="4"/><g clip-path="url(#72a010d1cf)"><g clip-path="url(#07657ce372)"><path fill="#000000" d="M 19.195312 24.015625 L 93.304688 24.015625 L 93.304688 50.050781 L 19.195312 50.050781 Z M 19.195312 24.015625 " fill-opacity="1" fill-rule="nonzero"/></g></g><g clip-path="url(#6f58433799)"><g clip-path="url(#026a5c0371)"><path stroke-linecap="butt" transform="matrix(0.751542, 0, 0, 0.756416, 19.202699, 24.014129)" fill="none" stroke-linejoin="miter" d="M 49.388609 0.00197826 C 22.111357 0.00197826 0.000566385 7.768869 0.000566385 17.353543 C 0.000566385 26.933052 22.111357 34.705107 49.388609 34.705107 C 76.665861 34.705107 98.781849 26.933052 98.781849 17.353543 C 98.781849 7.768869 76.665861 0.00197826 49.388609 0.00197826 Z M 49.388609 0.00197826 " stroke="#848484" stroke-width="8" stroke-opacity="1" stroke-miterlimit="4"/></g></g><g clip-path="url(#4f6f420cc0)"><g clip-path="url(#07b087d6fa)"><g clip-path="url(#602ff92169)"><path fill="#fbffce" d="M 69.808594 47.714844 L 43.921875 48.199219 C 43.765625 48.203125 43.628906 48.148438 43.515625 48.039062 C 43.402344 47.929688 43.34375 47.792969 43.339844 47.632812 C 43.324219 46.734375 43.394531 45.84375 43.550781 44.960938 C 43.707031 44.074219 43.949219 43.214844 44.273438 42.378906 C 44.597656 41.542969 45 40.746094 45.476562 39.988281 C 45.957031 39.234375 46.503906 38.53125 47.121094 37.886719 C 47.734375 37.238281 48.40625 36.660156 49.136719 36.144531 C 49.863281 35.632812 50.632812 35.199219 51.449219 34.839844 C 52.261719 34.480469 53.101562 34.203125 53.96875 34.011719 C 54.832031 33.820312 55.710938 33.71875 56.597656 33.699219 C 57.484375 33.683594 58.363281 33.753906 59.238281 33.914062 C 60.109375 34.074219 60.960938 34.316406 61.785156 34.644531 C 62.613281 34.972656 63.398438 35.378906 64.144531 35.867188 C 64.894531 36.351562 65.585938 36.90625 66.226562 37.527344 C 66.863281 38.152344 67.4375 38.832031 67.945312 39.570312 C 68.449219 40.308594 68.882812 41.089844 69.238281 41.910156 C 69.59375 42.734375 69.863281 43.585938 70.054688 44.464844 C 70.246094 45.34375 70.347656 46.230469 70.363281 47.128906 C 70.367188 47.289062 70.316406 47.425781 70.207031 47.539062 C 70.097656 47.652344 69.964844 47.710938 69.808594 47.714844 Z M 69.808594 47.714844 " fill-opacity="1" fill-rule="nonzero"/></g></g></g><g clip-path="url(#3a1c49ecf3)"><g clip-path="url(#707396ef0f)"><path stroke-linecap="butt" transform="matrix(0.751542, 0, 0, 0.756416, 19.202699, 24.014129)" fill="none" stroke-linejoin="miter" d="M 49.388609 0.00197826 C 22.111357 0.00197826 0.000566385 7.768869 0.000566385 17.353543 C 0.000566385 26.933052 22.111357 34.705107 49.388609 34.705107 C 76.665861 34.705107 98.781849 26.933052 98.781849 17.353543 C 98.781849 7.768869 76.665861 0.00197826 49.388609 0.00197826 Z M 49.388609 0.00197826 " stroke="#848484" stroke-width="8" stroke-opacity="1" stroke-miterlimit="4"/></g></g></svg>